#N canvas 827 239 527 327 12;
#X obj 596 1250 midiout;
#X text 225 828 start;
#X text 350 828 manufacturer id;
#X obj 694 1194 print;
#X obj 145 600 bng 25 250 50 0 empty empty empty 17 7 0 10 #e4e4e4 #4d4d4d #373737;
#X msg 298 829 125;
#X msg 173 829 240;
#X text 2208 813 end;
#X msg 2165 814 247;
#X msg 496 829 1;
#X text 530 828 set pin config command;
#X text 739 828 pin;
#X text 823 895 pin_mode: INPUT_PULLUP;
#X msg 795 829 0;
#X text 832 828 pin_mode: INPUT;
#X msg 795 864 1;
#X text 832 863 pin_mode: OUTPUT;
#X msg 795 896 2;
#X msg 1547 812 88;
#X text 1590 811 midi status CC (/2);
#X text 1794 813 controller or note;
#X text 1956 813 min midi;
#X msg 1930 814 0;
#X text 2058 813 max midi;
#X obj 121 1705 midiout;
#X text 225 1481 start;
#X text 350 1481 manufacturer id;
#X obj 219 1649 print;
#X obj 172 1353 bng 25 250 50 0 empty empty empty 17 7 0 10 #e4e4e4 #4d4d4d #373737;
#X msg 298 1482 125;
#X msg 173 1482 240;
#X msg 513 1478 9;
#X text 556 1477 reset;
#X msg 649 1478 247;
#X obj 173 1613 pack f f f f;
#X obj 172 1400 t b b b b;
#X text 145 551 set pin config;
#X text 2579 701 get pin config;
#X obj 2647 1119 midiout;
#X text 2699 898 start;
#X text 2824 898 manufacturer id;
#X obj 2646 770 bng 25 250 50 0 empty empty empty 17 7 0 10 #e4e4e4 #4d4d4d #373737;
#X msg 2772 899 125;
#X msg 2647 899 240;
#X text 113 1309 reset;
#X text 3181 898 pin;
#X obj 2646 817 t b b b b b;
#X obj 2647 1030 pack f f f f f;
#X msg 3277 905 247;
#X text 3030 894 get command;
#X msg 2987 895 2;
#X obj 3456 794 sysexin;
#X floatatom 3456 823 4 0 127 0 - - - 0;
#X floatatom 3502 829 4 0 127 0 - - - 0;
#X obj 3462 917 print sysex_byte;
#X text 3437 708 response;
#X text 1359 813 midi channel;
#X msg 1322 814 1;
#X obj 145 647 t b b b b b b b b b b b;
#X obj 648 1158 pack f f f f f f f f f f f;
#X text 145 -72 add peer mac address;
#X obj 154 -6 bng 25 250 50 0 empty empty empty 17 7 0 10 #e4e4e4 #4d4d4d #373737;
#X text 215 130 start;
#X text 340 130 manufacturer id;
#X msg 288 131 125;
#X msg 163 131 240;
#X text 520 130 add peer command;
#X msg 1402 128 247;
#X text 1436 127 end;
#X msg 711 128 204;
#X text 756 130 CC;
#X msg 846 129 141;
#X text 891 131 8D;
#X text 1000 130 A2;
#X msg 955 128 162;
#X text 1110 131 8B;
#X msg 1065 129 139;
#X text 1199 135 85;
#X msg 1154 133 133;
#X text 1302 133 1C;
#X obj 154 41 t b b b b b b b b b b;
#X obj 538 513 print;
#X obj 428 536 midiout;
#X msg 486 131 7;
#X obj 2572 159 bng 25 250 50 0 empty empty empty 17 7 0 10 #e4e4e4 #4d4d4d #373737;
#X text 2633 295 start;
#X text 2758 295 manufacturer id;
#X msg 2706 296 125;
#X msg 2581 296 240;
#X text 2938 295 add peer command;
#X text 2563 93 get peers;
#X msg 2904 296 8;
#X msg 3137 299 247;
#X text 3171 298 end;
#X obj 2572 206 t b b b b;
#X obj 2581 380 pack f f f f;
#X obj 2657 420 print;
#X obj 2579 526 midiout;
#X msg 1257 131 28;
#X obj 712 231 t f f;
#X obj 733 293 >> 4;
#X obj 733 331 & 15;
#X floatatom 741 369 5 0 0 0 - - - 12;
#X obj 692 337 & 15;
#X floatatom 692 369 5 0 0 0 - - - 12;
#X obj 881 232 t f f;
#X obj 902 294 >> 4;
#X obj 902 332 & 15;
#X floatatom 910 370 5 0 0 0 - - - 12;
#X obj 861 338 & 15;
#X floatatom 861 370 5 0 0 0 - - - 12;
#X obj 1039 231 t f f;
#X obj 1060 293 >> 4;
#X obj 1060 331 & 15;
#X floatatom 1068 369 5 0 0 0 - - - 12;
#X obj 1019 337 & 15;
#X floatatom 1019 369 5 0 0 0 - - - 12;
#X obj 1233 236 t f f;
#X obj 1254 298 >> 4;
#X obj 1254 336 & 15;
#X floatatom 1262 374 5 0 0 0 - - - 12;
#X obj 1213 342 & 15;
#X floatatom 1199 385 5 0 0 0 - - - 12;
#X obj 1402 237 t f f;
#X obj 1423 299 >> 4;
#X obj 1423 337 & 15;
#X floatatom 1431 375 5 0 0 0 - - - 12;
#X obj 1382 343 & 15;
#X floatatom 1382 375 5 0 0 0 - - - 12;
#X obj 1560 236 t f f;
#X obj 1581 298 >> 4;
#X obj 1581 336 & 15;
#X floatatom 1599 374 5 0 0 0 - - - 12;
#X obj 1540 342 & 15;
#X floatatom 1540 374 5 0 0 0 - - - 12;
#X obj 436 455 pack f f f f f f f f f f f f f f f f;
#X msg 3152 899 16;
#X text 726 867 pin;
#X msg 710 829 17;
#X msg 697 868 16;
#X msg 1751 814 61;
#X msg 2032 814 100;
#X connect 4 0 58 0;
#X connect 5 0 59 1;
#X connect 6 0 59 0;
#X connect 8 0 59 10;
#X connect 9 0 59 2;
#X connect 17 0 59 4;
#X connect 18 0 59 6;
#X connect 22 0 59 8;
#X connect 28 0 35 0;
#X connect 29 0 34 1;
#X connect 30 0 34 0;
#X connect 31 0 34 2;
#X connect 33 0 34 3;
#X connect 34 0 27 0;
#X connect 34 0 24 0;
#X connect 35 0 30 0;
#X connect 35 1 29 0;
#X connect 35 2 31 0;
#X connect 35 3 33 0;
#X connect 41 0 46 0;
#X connect 42 0 47 1;
#X connect 43 0 47 0;
#X connect 46 0 43 0;
#X connect 46 1 42 0;
#X connect 46 2 50 0;
#X connect 46 3 136 0;
#X connect 46 4 48 0;
#X connect 47 0 38 0;
#X connect 48 0 47 4;
#X connect 50 0 47 2;
#X connect 51 0 52 0;
#X connect 51 1 53 0;
#X connect 52 0 54 0;
#X connect 57 0 59 5;
#X connect 58 0 6 0;
#X connect 58 1 5 0;
#X connect 58 2 9 0;
#X connect 58 3 138 0;
#X connect 58 4 17 0;
#X connect 58 5 57 0;
#X connect 58 6 18 0;
#X connect 58 7 140 0;
#X connect 58 8 22 0;
#X connect 58 9 141 0;
#X connect 58 10 8 0;
#X connect 59 0 3 0;
#X connect 59 0 0 0;
#X connect 61 0 80 0;
#X connect 64 0 135 1;
#X connect 65 0 135 0;
#X connect 67 0 135 15;
#X connect 69 0 99 0;
#X connect 71 0 105 0;
#X connect 74 0 111 0;
#X connect 76 0 117 0;
#X connect 78 0 123 0;
#X connect 80 0 65 0;
#X connect 80 1 64 0;
#X connect 80 2 83 0;
#X connect 80 3 69 0;
#X connect 80 4 71 0;
#X connect 80 5 74 0;
#X connect 80 6 76 0;
#X connect 80 7 78 0;
#X connect 80 8 98 0;
#X connect 80 9 67 0;
#X connect 83 0 135 2;
#X connect 84 0 94 0;
#X connect 87 0 95 1;
#X connect 88 0 95 0;
#X connect 91 0 95 2;
#X connect 92 0 95 3;
#X connect 94 0 88 0;
#X connect 94 1 87 0;
#X connect 94 2 91 0;
#X connect 94 3 92 0;
#X connect 95 0 96 0;
#X connect 95 0 97 0;
#X connect 98 0 129 0;
#X connect 99 0 103 0;
#X connect 99 1 100 0;
#X connect 100 0 101 0;
#X connect 101 0 102 0;
#X connect 102 0 135 4;
#X connect 103 0 104 0;
#X connect 104 0 135 3;
#X connect 105 0 109 0;
#X connect 105 1 106 0;
#X connect 106 0 107 0;
#X connect 107 0 108 0;
#X connect 108 0 135 6;
#X connect 109 0 110 0;
#X connect 110 0 135 5;
#X connect 111 0 115 0;
#X connect 111 1 112 0;
#X connect 112 0 113 0;
#X connect 113 0 114 0;
#X connect 114 0 135 8;
#X connect 115 0 116 0;
#X connect 116 0 135 7;
#X connect 117 0 121 0;
#X connect 117 1 118 0;
#X connect 118 0 119 0;
#X connect 119 0 120 0;
#X connect 120 0 135 10;
#X connect 121 0 122 0;
#X connect 122 0 135 9;
#X connect 123 0 127 0;
#X connect 123 1 124 0;
#X connect 124 0 125 0;
#X connect 125 0 126 0;
#X connect 126 0 135 12;
#X connect 127 0 128 0;
#X connect 128 0 135 11;
#X connect 129 0 133 0;
#X connect 129 1 130 0;
#X connect 130 0 131 0;
#X connect 131 0 132 0;
#X connect 132 0 135 14;
#X connect 133 0 134 0;
#X connect 134 0 135 13;
#X connect 135 0 81 0;
#X connect 135 0 82 0;
#X connect 136 0 47 3;
#X connect 138 0 59 3;
#X connect 139 0 59 3;
#X connect 140 0 59 7;
#X connect 141 0 59 9;
