#N canvas 827 239 527 327 12;
#X obj 147 607 midiout;
#X text 218 251 start;
#X text 343 251 manufacturer id;
#X obj 245 551 print;
#X obj 165 123 bng 25 250 50 0 empty empty empty 17 7 0 10 #e4e4e4 #4d4d4d #373737;
#X msg 291 252 125;
#X msg 166 252 240;
#X text 1680 255 end;
#X msg 1637 256 247;
#X msg 489 252 1;
#X text 523 251 set pin config command;
#X msg 703 252 3;
#X text 732 251 pin;
#X text 816 318 pin_mode: INPUT_PULLUP;
#X msg 788 252 0;
#X text 825 251 pin_mode: INPUT;
#X msg 788 287 1;
#X text 825 286 pin_mode: OUTPUT;
#X msg 788 319 2;
#X msg 1019 254 88;
#X text 1062 253 midi status CC (/2);
#X msg 1223 256 60;
#X text 1266 255 controller or note;
#X obj 199 515 pack f f f f f f f f f f;
#X text 1428 255 min midi;
#X msg 1402 256 0;
#X text 1530 255 max midi;
#X msg 1504 256 127;
#X obj 165 170 t b b b b b b b b b b;
#X connect 4 0 28 0;
#X connect 5 0 23 1;
#X connect 6 0 23 0;
#X connect 8 0 23 9;
#X connect 9 0 23 2;
#X connect 11 0 23 3;
#X connect 18 0 23 4;
#X connect 19 0 23 5;
#X connect 21 0 23 6;
#X connect 23 0 3 0;
#X connect 23 0 0 0;
#X connect 25 0 23 7;
#X connect 27 0 23 8;
#X connect 28 0 6 0;
#X connect 28 1 5 0;
#X connect 28 2 9 0;
#X connect 28 3 11 0;
#X connect 28 4 18 0;
#X connect 28 5 19 0;
#X connect 28 6 21 0;
#X connect 28 7 25 0;
#X connect 28 8 27 0;
#X connect 28 9 8 0;
