#N canvas 827 239 527 327 12;
#X obj 147 607 midiout;
#X text 218 251 start;
#X text 343 251 manufacturer id;
#X obj 245 551 print;
#X obj 165 123 bng 25 250 50 0 empty empty empty 17 7 0 10 #e4e4e4 #4d4d4d #373737;
#X msg 291 252 125;
#X msg 166 252 240;
#X text 1680 255 end;
#X msg 1637 256 247;
#X msg 489 252 1;
#X text 523 251 set pin config command;
#X msg 703 252 3;
#X text 732 251 pin;
#X text 816 318 pin_mode: INPUT_PULLUP;
#X msg 788 252 0;
#X text 825 251 pin_mode: INPUT;
#X msg 788 287 1;
#X text 825 286 pin_mode: OUTPUT;
#X msg 788 319 2;
#X msg 1019 254 88;
#X text 1062 253 midi status CC (/2);
#X msg 1223 256 60;
#X text 1266 255 controller or note;
#X obj 199 515 pack f f f f f f f f f f;
#X text 1428 255 min midi;
#X msg 1402 256 0;
#X text 1530 255 max midi;
#X msg 1504 256 127;
#X obj 165 170 t b b b b b b b b b b;
#X obj 121 1705 midiout;
#X text 225 1481 start;
#X text 350 1481 manufacturer id;
#X obj 219 1649 print;
#X obj 172 1353 bng 25 250 50 0 empty empty empty 17 7 0 10 #e4e4e4 #4d4d4d #373737;
#X msg 298 1482 125;
#X msg 173 1482 240;
#X msg 513 1478 9;
#X text 556 1477 reset;
#X msg 649 1478 247;
#X obj 173 1613 pack f f f f;
#X obj 172 1400 t b b b b;
#X text 168 65 set pin config;
#X text 140 724 get pin config;
#X obj 208 1142 midiout;
#X text 260 921 start;
#X text 385 921 manufacturer id;
#X obj 207 793 bng 25 250 50 0 empty empty empty 17 7 0 10 #e4e4e4 #4d4d4d #373737;
#X msg 333 922 125;
#X msg 208 922 240;
#X text 113 1309 reset;
#X msg 713 922 3;
#X text 742 921 pin;
#X obj 207 840 t b b b b b;
#X obj 208 1053 pack f f f f f;
#X msg 838 928 247;
#X text 591 917 get command;
#X msg 548 918 2;
#X obj 1017 817 sysexin;
#X floatatom 1017 846 4 0 127 0 - - - 0;
#X floatatom 1063 852 4 0 127 0 - - - 0;
#X obj 1023 940 print sysex_byte;
#X text 998 731 response;
#X connect 4 0 28 0;
#X connect 5 0 23 1;
#X connect 6 0 23 0;
#X connect 8 0 23 9;
#X connect 9 0 23 2;
#X connect 11 0 23 3;
#X connect 18 0 23 4;
#X connect 19 0 23 5;
#X connect 21 0 23 6;
#X connect 23 0 3 0;
#X connect 23 0 0 0;
#X connect 25 0 23 7;
#X connect 27 0 23 8;
#X connect 28 0 6 0;
#X connect 28 1 5 0;
#X connect 28 2 9 0;
#X connect 28 3 11 0;
#X connect 28 4 18 0;
#X connect 28 5 19 0;
#X connect 28 6 21 0;
#X connect 28 7 25 0;
#X connect 28 8 27 0;
#X connect 28 9 8 0;
#X connect 33 0 40 0;
#X connect 34 0 39 1;
#X connect 35 0 39 0;
#X connect 36 0 39 2;
#X connect 38 0 39 3;
#X connect 39 0 32 0;
#X connect 39 0 29 0;
#X connect 40 0 35 0;
#X connect 40 1 34 0;
#X connect 40 2 36 0;
#X connect 40 3 38 0;
#X connect 46 0 52 0;
#X connect 47 0 53 1;
#X connect 48 0 53 0;
#X connect 50 0 53 3;
#X connect 52 0 48 0;
#X connect 52 1 47 0;
#X connect 52 2 56 0;
#X connect 52 3 50 0;
#X connect 52 4 54 0;
#X connect 53 0 43 0;
#X connect 54 0 53 4;
#X connect 56 0 53 2;
#X connect 57 0 58 0;
#X connect 57 1 59 0;
#X connect 58 0 60 0;
