#N canvas 827 239 527 327 12;
#X obj 221 286 ctlout;
#X msg 302 240 1;
#X msg 259 240 127;
#X msg 221 240 24;
#X obj 197 124 bng 25 250 50 0 empty empty empty 17 7 0 10 #e4e4e4 #4d4d4d #373737;
#X obj 197 429 timer;
#X floatatom 197 680 5 0 0 0 - - - 12;
#X obj 241 332 ctlin;
#X obj 197 386 bng 25 250 50 0 empty empty empty 17 7 0 10 #e4e4e4 #4d4d4d #373737;
#X obj 241 386 bng 25 250 50 0 empty empty empty 17 7 0 10 #e4e4e4 #4d4d4d #373737;
#X text 252 679 ms;
#X obj 809 309 midiout;
#X msg 809 253 250;
#X msg 860 253 251;
#X msg 912 253 252;
#X obj 809 354 midiin;
#X obj 761 429 timer;
#X floatatom 761 680 5 0 0 0 - - - 12;
#X obj 761 386 bng 25 250 50 0 empty empty empty 17 7 0 10 #e4e4e4 #4d4d4d #373737;
#X obj 809 386 bng 25 250 50 0 empty empty empty 17 7 0 10 #e4e4e4 #4d4d4d #373737;
#X text 819 679 ms;
#X obj 748 162 t b b;
#X obj 748 124 bng 25 250 50 0 empty empty empty 17 7 0 10 #e4e4e4 #4d4d4d #373737;
#X obj 748 84 metro 100;
#X obj 748 38 tgl 25 0 empty empty empty 17 7 0 10 #e4e4e4 #4d4d4d #373737 0 1;
#X obj 197 11 tgl 25 0 empty empty empty 17 7 0 10 #e4e4e4 #4d4d4d #373737 0 1;
#X floatatom 426 393 5 0 0 0 - - - 12;
#X floatatom 376 393 5 0 0 0 - - - 12;
#X floatatom 302 393 5 0 0 0 - - - 12;
#X obj 197 84 metro 1000;
#X obj 197 780 list append;
#X obj 197 162 t b b b b;
#X obj 225 841 list;
#X obj 285 862 print;
#X obj 400 653 bng 25 250 50 0 empty empty empty 17 7 0 10 #e4e4e4 #4d4d4d #373737;
#X obj 225 949 list length;
#X floatatom 225 1119 5 0 0 0 - - - 12;
#X obj 569 951 sum;
#X obj 605 1061 /;
#X obj 225 893 t l l;
#X floatatom 624 1133 5 0 0 0 - - - 12;
#X obj 382 87 sel 1;
#X obj 197 48 t f f;
#X connect 1 0 0 2;
#X connect 2 0 0 1;
#X connect 3 0 0 0;
#X connect 4 0 31 0;
#X connect 5 0 6 0;
#X connect 6 0 30 0;
#X connect 7 0 9 0;
#X connect 7 0 28 0;
#X connect 7 1 27 0;
#X connect 7 2 26 0;
#X connect 8 0 5 0;
#X connect 9 0 5 1;
#X connect 12 0 11 0;
#X connect 13 0 11 0;
#X connect 14 0 11 0;
#X connect 15 0 19 0;
#X connect 16 0 17 0;
#X connect 18 0 16 0;
#X connect 19 0 16 1;
#X connect 21 0 12 0;
#X connect 21 1 18 0;
#X connect 22 0 21 0;
#X connect 23 0 22 0;
#X connect 24 0 23 0;
#X connect 25 0 42 0;
#X connect 29 0 4 0;
#X connect 30 0 32 0;
#X connect 31 0 3 0;
#X connect 31 0 8 0;
#X connect 31 1 2 0;
#X connect 31 2 1 0;
#X connect 32 0 30 1;
#X connect 32 0 33 0;
#X connect 32 0 39 0;
#X connect 34 0 30 1;
#X connect 35 0 36 0;
#X connect 36 0 38 1;
#X connect 37 0 38 0;
#X connect 38 0 40 0;
#X connect 39 0 37 0;
#X connect 39 1 35 0;
#X connect 41 0 34 0;
#X connect 42 0 29 0;
#X connect 42 1 41 0;
