#N canvas 827 239 527 327 12;
#X obj 221 286 ctlout;
#X msg 302 240 1;
#X msg 259 240 127;
#X msg 221 240 24;
#X obj 197 162 t b b b;
#X obj 197 124 bng 25 250 50 0 empty empty empty 17 7 0 10 #e4e4e4 #4d4d4d #373737;
#X obj 197 429 timer;
#X floatatom 197 680 5 0 0 0 - - - 12;
#X obj 241 332 ctlin;
#X obj 197 386 bng 25 250 50 0 empty empty empty 17 7 0 10 #e4e4e4 #4d4d4d #373737;
#X obj 241 386 bng 25 250 50 0 empty empty empty 17 7 0 10 #e4e4e4 #4d4d4d #373737;
#X text 252 679 ms;
#X obj 809 309 midiout;
#X msg 809 253 250;
#X msg 860 253 251;
#X msg 912 253 252;
#X obj 809 354 midiin;
#X obj 761 429 timer;
#X floatatom 761 680 5 0 0 0 - - - 12;
#X obj 761 386 bng 25 250 50 0 empty empty empty 17 7 0 10 #e4e4e4 #4d4d4d #373737;
#X obj 809 386 bng 25 250 50 0 empty empty empty 17 7 0 10 #e4e4e4 #4d4d4d #373737;
#X text 819 679 ms;
#X obj 748 162 t b b;
#X obj 748 124 bng 25 250 50 0 empty empty empty 17 7 0 10 #e4e4e4 #4d4d4d #373737;
#X obj 748 84 metro 100;
#X obj 748 38 tgl 25 0 empty empty empty 17 7 0 10 #e4e4e4 #4d4d4d #373737 0 1;
#X obj 92 507 print ctl;
#X obj 197 38 tgl 25 0 empty empty empty 17 7 0 10 #e4e4e4 #4d4d4d #373737 0 1;
#X floatatom 426 393 5 0 0 0 - - - 12;
#X floatatom 376 393 5 0 0 0 - - - 12;
#X floatatom 302 393 5 0 0 0 - - - 12;
#X obj 197 84 metro 1000;
#X connect 1 0 0 2;
#X connect 2 0 0 1;
#X connect 3 0 0 0;
#X connect 4 0 3 0;
#X connect 4 0 9 0;
#X connect 4 1 2 0;
#X connect 4 2 1 0;
#X connect 5 0 4 0;
#X connect 6 0 7 0;
#X connect 6 0 26 0;
#X connect 8 0 10 0;
#X connect 8 0 30 0;
#X connect 8 1 29 0;
#X connect 8 2 28 0;
#X connect 9 0 6 0;
#X connect 10 0 6 1;
#X connect 13 0 12 0;
#X connect 14 0 12 0;
#X connect 15 0 12 0;
#X connect 16 0 20 0;
#X connect 17 0 18 0;
#X connect 19 0 17 0;
#X connect 20 0 17 1;
#X connect 22 0 13 0;
#X connect 22 1 19 0;
#X connect 23 0 22 0;
#X connect 24 0 23 0;
#X connect 25 0 24 0;
#X connect 27 0 31 0;
#X connect 31 0 5 0;
