#N canvas 827 239 527 327 12;
#X obj 221 286 ctlout;
#X msg 318 240 1;
#X msg 259 240 127;
#X msg 206 209 24;
#X obj 197 145 t b b b;
#X obj 239 79 bng 25 250 50 0 empty empty empty 17 7 0 10 #e4e4e4 #4d4d4d #373737;
#X obj 264 562 timer;
#X floatatom 272 684 5 0 0 0 - - - 12;
#X obj 491 286 ctlin;
#X obj 215 429 bng 25 250 50 0 empty empty empty 17 7 0 10 #e4e4e4 #4d4d4d #373737;
#X obj 491 377 bng 25 250 50 0 empty empty empty 17 7 0 10 #e4e4e4 #4d4d4d #373737;
#X text 327 683 ms;
#X connect 1 0 0 2;
#X connect 2 0 0 1;
#X connect 3 0 0 0;
#X connect 4 0 3 0;
#X connect 4 0 9 0;
#X connect 4 1 2 0;
#X connect 4 2 1 0;
#X connect 5 0 4 0;
#X connect 6 0 7 0;
#X connect 8 0 10 0;
#X connect 9 0 6 0;
#X connect 10 0 6 1;
