#N canvas 827 239 527 327 12;
#X obj 221 286 ctlout;
#X msg 302 240 1;
#X msg 259 240 127;
#X msg 221 240 24;
#X obj 197 124 bng 25 250 50 0 empty empty empty 17 7 0 10 #e4e4e4 #4d4d4d #373737;
#X obj 197 429 timer;
#X floatatom 197 482 5 0 0 0 - - - 12;
#X obj 241 332 ctlin;
#X obj 197 386 bng 25 250 50 0 empty empty empty 17 7 0 10 #e4e4e4 #4d4d4d #373737;
#X obj 241 386 bng 25 250 50 0 empty empty empty 17 7 0 10 #e4e4e4 #4d4d4d #373737;
#X text 252 481 ms;
#X obj 197 11 tgl 25 0 empty empty empty 17 7 0 10 #e4e4e4 #4d4d4d #373737 0 1;
#X floatatom 426 393 5 0 0 0 - - - 12;
#X floatatom 376 393 5 0 0 0 - - - 12;
#X floatatom 302 393 5 0 0 0 - - - 12;
#X obj 39 608 list append;
#X obj 197 162 t b b b b;
#X obj 156 608 list;
#X obj 400 455 bng 25 250 50 0 empty empty empty 17 7 0 10 #e4e4e4 #4d4d4d #373737;
#X obj 155 745 list length;
#X floatatom 155 784 5 0 0 0 - - - 12;
#X obj 569 753 sum;
#X obj 569 860 /;
#X floatatom 569 925 5 0 0 0 - - - 12;
#X obj 400 84 sel 1;
#X obj 197 48 t f f;
#X obj 155 881 sel 1000;
#X msg 107 -42 0;
#X obj -485 1595 textfile;
#X obj 167 1002 f;
#X obj 155 819 t f f;
#X obj 155 704 t l l;
#X obj 153 925 t b b b;
#X msg -82 1118 add \$1;
#X obj 185 -219 bng 25 250 50 0 empty empty empty 17 7 0 10 #e4e4e4 #4d4d4d #373737;
#X obj 997 -49 s \$0-iterations;
#X obj 190 853 r \$0-iterations;
#X obj 186 961 s \$0-stop;
#X obj 108 -76 r \$0-stop;
#X obj -228 1253 print;
#X msg -228 1217 add avg: \$1;
#X obj 197 84 metro 50;
#X msg 872 -76 50;
#X obj 872 -49 s \$0-frequency;
#X obj -499 1187 r \$0-iterations;
#X msg -499 1217 add iterations: \$1;
#X obj -357 1187 r \$0-frequency;
#X obj -631 1186 r \$0-processor;
#X obj 639 -53 s \$0-distance;
#X obj -791 1186 r \$0-distance;
#X obj -884 1191 r \$0-start;
#X obj 193 -138 t b b b b b b;
#X obj 295 -76 s \$0-start;
#X msg -357 1217 add frequency: \$1;
#X obj 1178 -49 s \$0-processor;
#X msg -881 1222 clear;
#X msg 1178 -76 add TODO: lscpu;
#X msg 639 -76 add esp-now-midi distance 0.5m;
#X msg 997 -76 100;
#X obj -30 1107 t f b;
#X msg -252 1349 add;
#X msg 133 1187 write /home/thomas/Arduino/libraries/ESP-NOW-MIDI/benchmarks/0-5m__i7_ubuntu.txt cr;
#X connect 1 0 0 2;
#X connect 2 0 0 1;
#X connect 3 0 0 0;
#X connect 4 0 16 0;
#X connect 5 0 6 0;
#X connect 6 0 15 0;
#X connect 7 0 9 0;
#X connect 7 0 14 0;
#X connect 7 1 13 0;
#X connect 7 2 12 0;
#X connect 8 0 5 0;
#X connect 9 0 5 1;
#X connect 11 0 25 0;
#X connect 15 0 17 0;
#X connect 15 0 33 0;
#X connect 16 0 3 0;
#X connect 16 0 8 0;
#X connect 16 1 2 0;
#X connect 16 2 1 0;
#X connect 17 0 15 1;
#X connect 17 0 31 0;
#X connect 18 0 15 1;
#X connect 19 0 20 0;
#X connect 20 0 30 0;
#X connect 21 0 22 0;
#X connect 22 0 23 0;
#X connect 23 0 29 1;
#X connect 24 0 18 0;
#X connect 25 0 41 0;
#X connect 25 1 24 0;
#X connect 26 0 32 0;
#X connect 27 0 11 0;
#X connect 29 0 59 0;
#X connect 30 0 26 0;
#X connect 30 1 22 1;
#X connect 31 0 21 0;
#X connect 31 1 19 0;
#X connect 32 0 61 0;
#X connect 32 1 29 0;
#X connect 32 2 37 0;
#X connect 33 0 28 0;
#X connect 34 0 51 0;
#X connect 36 0 26 1;
#X connect 38 0 27 0;
#X connect 40 0 39 0;
#X connect 40 0 28 0;
#X connect 41 0 4 0;
#X connect 42 0 43 0;
#X connect 42 0 41 1;
#X connect 44 0 45 0;
#X connect 45 0 28 0;
#X connect 46 0 53 0;
#X connect 47 0 28 0;
#X connect 49 0 28 0;
#X connect 50 0 55 0;
#X connect 51 0 11 0;
#X connect 51 1 56 0;
#X connect 51 2 42 0;
#X connect 51 3 58 0;
#X connect 51 4 57 0;
#X connect 51 5 52 0;
#X connect 53 0 28 0;
#X connect 55 0 28 0;
#X connect 56 0 54 0;
#X connect 57 0 48 0;
#X connect 58 0 35 0;
#X connect 59 0 40 0;
#X connect 59 1 60 0;
#X connect 60 0 28 0;
#X connect 61 0 28 0;
